<?xml version="1.0" standalone="no"?>
<!DOCTYPE svg PUBLIC "-//W3C//DTD SVG 20010904//EN"
 "http://www.w3.org/TR/2001/REC-SVG-20010904/DTD/svg10.dtd">
<svg version="1.0" xmlns="http://www.w3.org/2000/svg"
 width="512.000000pt" height="512.000000pt" viewBox="0 0 512.000000 512.000000"
 preserveAspectRatio="xMidYMid meet">

<g transform="translate(0.000000,512.000000) scale(0.100000,-0.100000)"
 stroke="none">
<path d="M2420 4954 c-200 -26 -408 -102 -565 -207 -83 -56 -108 -77 -203
-170 -172 -170 -294 -396 -348 -647 -26 -119 -26 -381 0 -500 110 -512 494
-896 1006 -1006 119 -26 381 -26 500 0 513 111 895 493 1006 1006 26 119 26
381 0 500 -111 513 -494 896 -1006 1006 -73 15 -320 27 -390 18z"/>
<path d="M1287 2530 c-188 -95 -325 -198 -479 -359 -234 -243 -395 -559 -459
-893 -18 -93 -22 -163 -26 -388 -6 -304 0 -357 47 -458 36 -77 133 -178 208
-216 112 -57 89 -56 1184 -56 l1007 0 -102 103 c-56 56 -131 143 -165 192
-318 451 -347 1058 -73 1535 54 95 54 97 -30 99 -20 1 -83 10 -140 22 -287 57
-547 187 -776 388 -50 45 -93 81 -95 81 -2 0 -47 -23 -101 -50z"/>
<path d="M3525 2389 c-240 -35 -463 -147 -635 -319 -418 -418 -440 -1076 -52
-1527 214 -249 560 -397 886 -380 184 9 317 46 478 129 479 250 710 819 542
1334 -130 399 -480 697 -894 759 -104 16 -231 18 -325 4z m243 -656 c58 -43
67 -66 70 -183 l4 -108 108 -4 c91 -2 113 -6 136 -24 53 -39 69 -71 69 -134 0
-63 -16 -95 -69 -134 -23 -18 -45 -22 -136 -24 l-108 -4 -4 -108 c-3 -117 -12
-140 -72 -184 -39 -29 -133 -29 -172 0 -60 44 -69 67 -72 184 l-4 108 -108 4
c-117 3 -140 12 -184 72 -29 39 -29 133 0 172 44 60 67 69 185 72 l109 4 0 93
c0 128 22 178 95 211 40 19 119 12 153 -13z"/>
</g>
</svg>
