<svg id="Capa_1" enable-background="new 0 0 512 512" height="512" viewBox="0 0 512 512" width="512" xmlns="http://www.w3.org/2000/svg"><g><path d="m110.9 0c-4.08 0-7.89 1.67-10.61 4.39l-95.63 95.64c-3.21 3.21-4.66 7.05-4.66 10.86h110.9z"/><path d="m296.63 413.05c-4.12 1.22-8.43 1.86-12.77 1.86-11.99 0-23.26-4.66-31.75-13.11l-35.9-35.75c-12.14-12.06-16.06-29.44-11.35-44.96-14.31-7.6-23.86-22.64-23.86-39.75v-50.68c0-16.94 9.36-31.85 23.43-39.52-4.55-15.35-.67-32.52 11.27-44.53l35.75-35.9c8.5-8.56 19.83-13.27 31.9-13.27 4.44 0 8.84.67 13.05 1.95 7.6-14.33 22.64-23.89 39.76-23.89h40.34v-60.5c0-8.28-6.72-15-15-15h-220.6v125.89c0 8.28-6.72 15-15 15h-125.9v356.11c0 8.28 6.72 15 15 15h346.5c8.28 0 15-6.72 15-15v-60.5h-40.34c-16.95 0-31.86-9.37-39.53-23.45zm-160.05 27.84h-91c-8.28 0-15-6.71-15-15 0-8.28 6.72-15 15-15h91c8.28 0 15 6.72 15 15 0 8.29-6.72 15-15 15zm0-60h-91c-8.28 0-15-6.71-15-15 0-8.28 6.72-15 15-15h91c8.28 0 15 6.72 15 15 0 8.29-6.72 15-15 15zm0-60h-91c-8.28 0-15-6.71-15-15 0-8.28 6.72-15 15-15h91c8.28 0 15 6.72 15 15 0 8.29-6.72 15-15 15zm0-60h-91c-8.28 0-15-6.71-15-15 0-8.28 6.72-15 15-15h91c8.28 0 15 6.72 15 15 0 8.29-6.72 15-15 15zm0-60h-91c-8.28 0-15-6.71-15-15 0-8.28 6.72-15 15-15h91c8.28 0 15 6.72 15 15 0 8.29-6.72 15-15 15z"/><path d="m498.65 215.75-31.8-3.53 19.94-25.02c4.76-5.98 4.27-14.59-1.15-19.98l-35.92-35.76c-5.41-5.39-14.02-5.85-19.98-1.06l-24.52 19.72-3.47-31.27c-.84-7.6-7.26-13.35-14.91-13.35h-50.68c-7.65 0-14.07 5.75-14.91 13.35l-3.53 31.8-25.02-19.94c-5.98-4.76-14.59-4.27-19.98 1.15l-35.76 35.92c-5.39 5.42-5.85 14.02-1.06 19.98l19.72 24.52-31.27 3.47c-7.6.84-13.35 7.27-13.35 14.91v50.68c0 7.64 5.75 14.07 13.35 14.91l31.8 3.53-19.94 25.02c-4.76 5.98-4.27 14.59 1.15 19.98l35.92 35.76c5.41 5.39 14.02 5.85 19.98 1.06l24.52-19.72 3.47 31.27c.84 7.6 7.26 13.35 14.91 13.35h50.68c7.65 0 14.07-5.75 14.91-13.35l3.53-31.8 25.02 19.94c5.98 4.76 14.59 4.27 19.98-1.15l35.76-35.92c5.39-5.42 5.85-14.02 1.06-19.98l-19.72-24.52 31.27-3.47c7.6-.84 13.35-7.27 13.35-14.91v-50.68c0-7.64-5.75-14.07-13.35-14.91zm-137.15 96.64c-31.09 0-56.39-25.3-56.39-56.39s25.3-56.39 56.39-56.39 56.39 25.3 56.39 56.39-25.3 56.39-56.39 56.39z"/></g></svg>