<svg id="Capa_1" enable-background="new 0 0 512 512" height="512" viewBox="0 0 512 512" width="512" xmlns="http://www.w3.org/2000/svg"><g><path d="m361.5 208.738c-26.061 0-47.262 21.202-47.262 47.262s21.201 47.262 47.262 47.262 47.262-21.202 47.262-47.262-21.201-47.262-47.262-47.262zm0 64.524c-9.519 0-17.262-7.744-17.262-17.262s7.743-17.262 17.262-17.262 17.262 7.744 17.262 17.262-7.743 17.262-17.262 17.262z"/><path d="m498.654 215.75-31.801-3.528 19.936-25.025c4.763-5.979 4.268-14.583-1.149-19.977l-35.918-35.757c-5.416-5.393-14.023-5.85-19.981-1.06l-24.521 19.715-3.47-31.272c-.843-7.598-7.264-13.346-14.908-13.346h-10.342v-90.5c0-8.284-6.716-15-15-15h-250.597c-3.974-.002-7.832 1.612-10.612 4.394l-95.814 95.814c-2.977 2.933-4.477 6.884-4.477 10.682v386.11c0 8.284 6.716 15 15 15h346.5c8.284 0 15-6.716 15-15v-90.5h10.341c7.645 0 14.065-5.749 14.908-13.346l3.528-31.801 25.026 19.936c5.978 4.763 14.583 4.267 19.977-1.15l35.757-35.918c5.393-5.417 5.85-14.024 1.06-19.981l-19.715-24.521 31.272-3.469c7.598-.843 13.346-7.265 13.346-14.909v-50.682c0-7.644-5.748-14.066-13.346-14.909zm-402.754-164.54v44.68h-44.68zm250.6 430.79h-316.5v-356.11h80.9c8.284 0 15-6.716 15-15v-80.89h220.6v75.5h-10.341c-7.645 0-14.065 5.749-14.908 13.346l-3.528 31.801-25.026-19.936c-5.979-4.763-14.584-4.268-19.977 1.15l-35.757 35.918c-5.393 5.417-5.85 14.024-1.06 19.981l19.715 24.521-31.272 3.469c-7.598.843-13.346 7.265-13.346 14.909v50.682c0 7.644 5.748 14.066 13.346 14.909l31.801 3.528-19.936 25.025c-4.763 5.979-4.268 14.583 1.149 19.977l35.918 35.757c5.416 5.393 14.023 5.85 19.981 1.06l24.521-19.715 3.47 31.272c.843 7.598 7.264 13.346 14.908 13.346h10.342zm135.5-214.087-31.866 3.535c-5.803.644-10.705 4.597-12.564 10.131-1.132 3.37-2.517 6.716-4.116 9.947-2.591 5.235-1.906 11.499 1.754 16.052l20.096 24.995-16.81 16.885-25.086-19.983c-4.566-3.639-10.835-4.295-16.058-1.682-3.333 1.668-6.789 3.106-10.271 4.277-5.534 1.86-9.486 6.762-10.13 12.565l-3.535 31.866h-23.826l-3.535-31.866c-.644-5.803-4.596-10.705-10.13-12.565-3.371-1.133-6.718-2.518-9.947-4.116-5.237-2.592-11.5-1.907-16.052 1.753l-24.995 20.095-16.886-16.81 19.983-25.085c3.64-4.569 4.296-10.836 1.682-16.06-1.667-3.33-3.105-6.785-4.276-10.269-1.86-5.535-6.762-9.487-12.564-10.131l-31.868-3.534v-23.826l31.866-3.535c5.803-.644 10.705-4.597 12.564-10.131 1.132-3.37 2.517-6.716 4.116-9.947 2.591-5.235 1.906-11.499-1.754-16.052l-20.096-24.995 16.81-16.885 25.086 19.983c4.568 3.64 10.836 4.296 16.058 1.682 3.333-1.668 6.789-3.106 10.271-4.277 5.534-1.86 9.486-6.762 10.13-12.565l3.535-31.866h23.826l3.535 31.866c.644 5.803 4.596 10.705 10.13 12.565 3.371 1.133 6.718 2.518 9.947 4.116 5.236 2.591 11.499 1.907 16.052-1.753l24.995-20.095 16.886 16.81-19.983 25.085c-3.64 4.569-4.296 10.836-1.682 16.06 1.667 3.33 3.105 6.785 4.276 10.269 1.86 5.535 6.762 9.487 12.564 10.131l31.868 3.534z"/><path d="m75.003 185.895h90.997c8.284 0 15-6.716 15-15s-6.716-15-15-15h-90.997c-8.284 0-15 6.716-15 15s6.716 15 15 15z"/><path d="m75.003 245.895h90.997c8.284 0 15-6.716 15-15s-6.716-15-15-15h-90.997c-8.284 0-15 6.716-15 15s6.716 15 15 15z"/><path d="m75.003 305.895h90.997c8.284 0 15-6.716 15-15s-6.716-15-15-15h-90.997c-8.284 0-15 6.716-15 15s6.716 15 15 15z"/><path d="m75.003 365.895h90.997c8.284 0 15-6.716 15-15s-6.716-15-15-15h-90.997c-8.284 0-15 6.716-15 15s6.716 15 15 15z"/><path d="m216 395.895h-140.997c-8.284 0-15 6.716-15 15s6.716 15 15 15h140.997c8.284 0 15-6.716 15-15s-6.716-15-15-15z"/></g></svg>