<svg xmlns="http://www.w3.org/2000/svg" xmlns:xlink="http://www.w3.org/1999/xlink" width="30" height="30" viewBox="0 0 30 30"><defs><clipPath id="a"><rect width="30" height="30" transform="translate(39 23)"  stroke="#707070" stroke-width="1"/></clipPath></defs><g transform="translate(-39 -23)" clip-path="url(#a)"><g transform="translate(35.557 56.455)"><path d="M6.062-33.328A3.541,3.541,0,0,0,3.568-30.8c-.166.62-.166,24.073,0,24.693A3.527,3.527,0,0,0,6.09-3.568c.375.094,1.874.108,12.361.108,13.01,0,12.289.022,13.132-.4A3.921,3.921,0,0,0,33-5.254c.468-.879.44-.058.44-13.2,0-10.487-.014-11.986-.108-12.361A3.527,3.527,0,0,0,30.8-33.335C30.185-33.494,6.66-33.486,6.062-33.328Zm6.09,5.838c.49.368.5.382.5,2.119s-.007,1.751-.5,2.119c-.187.144-.3.151-1.773.151s-1.586-.007-1.773-.151c-.483-.353-.5-.411-.519-1.924-.029-1.593-.007-1.766.252-2.076.339-.4.483-.425,2.126-.4C11.842-27.641,11.972-27.627,12.152-27.49ZM28.3-26.336a1.018,1.018,0,0,1,.5.966,1.018,1.018,0,0,1-.5.966c-.195.151-.267.151-6.227.173-4.1.014-6.119,0-6.3-.058a1.158,1.158,0,0,1-.512-1.809c.375-.44.072-.425,6.739-.4C28.037-26.488,28.1-26.488,28.3-26.336ZM12.152-20.57c.49.368.5.382.5,2.119s-.007,1.751-.5,2.119c-.187.144-.3.151-1.773.151s-1.586-.007-1.773-.151c-.483-.353-.5-.411-.519-1.924-.029-1.593-.007-1.766.252-2.076.339-.4.483-.425,2.126-.4C11.842-20.722,11.972-20.707,12.152-20.57ZM28.3-19.417a1.018,1.018,0,0,1,.5.966,1.018,1.018,0,0,1-.5.966c-.195.151-.267.151-6.227.173-4.1.014-6.119,0-6.3-.058a1.158,1.158,0,0,1-.512-1.809c.375-.44.072-.425,6.739-.4C28.037-19.569,28.1-19.569,28.3-19.417ZM12.152-13.651c.49.368.5.382.5,2.119s-.007,1.751-.5,2.119c-.187.144-.3.151-1.773.151s-1.586-.007-1.773-.151c-.483-.353-.5-.411-.519-1.924-.029-1.593-.007-1.766.252-2.076.339-.4.483-.425,2.126-.4C11.842-13.8,11.972-13.788,12.152-13.651ZM28.3-12.5a1.018,1.018,0,0,1,.5.966,1.018,1.018,0,0,1-.5.966c-.195.151-.267.151-6.227.173-4.1.014-6.119,0-6.3-.058a1.158,1.158,0,0,1-.512-1.809c.375-.44.072-.425,6.739-.4C28.037-12.649,28.1-12.649,28.3-12.5Z" /></g></g></svg>