<svg xmlns="http://www.w3.org/2000/svg" xmlns:xlink="http://www.w3.org/1999/xlink" width="30" height="30" viewBox="0 0 30 30"><defs><clipPath id="a"><rect width="30" height="30" transform="translate(39 23)"  stroke="#707070" stroke-width="1"/></clipPath></defs><g transform="translate(-39 -23)" clip-path="url(#a)"><g transform="translate(39 53)"><path d="M9.363-29.83l-.193.17v2.836l.193.17.187.17h5.426c5.889,0,5.66.012,5.812-.322a13.83,13.83,0,0,0,0-2.871c-.152-.334.076-.322-5.812-.322H9.551Z" /><path d="M5.572-28.148a2.7,2.7,0,0,0-1.846,1.717L3.6-26.1,3.586-14.3c-.012,8.689,0,11.9.047,12.158A2.656,2.656,0,0,0,5.672-.064C5.895-.018,8.6,0,15.018,0,22.951,0,24.1-.012,24.4-.088a2.685,2.685,0,0,0,1.869-1.723l.123-.328.018-11.807c.012-8.689,0-11.9-.047-12.158a2.5,2.5,0,0,0-.727-1.354,2.793,2.793,0,0,0-2.32-.785h-.7v.762a3.059,3.059,0,0,1-.123,1.125,2.275,2.275,0,0,1-1.283,1.418l-.381.182-5.684.018c-5.561.012-5.689.012-6.07-.105a2.413,2.413,0,0,1-1.529-1.441,3.937,3.937,0,0,1-.152-1.154l-.029-.8-.738.006A4.9,4.9,0,0,0,5.572-28.148Zm7,7.02a.884.884,0,0,1,.469.961c-.035.188-.252.434-1.541,1.729-1.611,1.611-1.7,1.682-2.162,1.594-.182-.035-.346-.164-.967-.779s-.744-.785-.779-.967A.889.889,0,0,1,8.7-19.629a1.96,1.96,0,0,1,.539.363l.322.3,1.066-1.055c.586-.58,1.119-1.09,1.184-1.125A1.071,1.071,0,0,1,12.568-21.129ZM22.014-19.3a.887.887,0,0,1,0,1.453c-.164.123-.217.123-3.533.141l-3.369.012-.234-.129a1.012,1.012,0,0,1-.463-.75,1.056,1.056,0,0,1,.451-.75l.223-.129,3.381.018C21.8-19.424,21.85-19.424,22.014-19.3Zm-9.4,4.512a.877.877,0,0,1,.434.58c.082.439.029.5-1.494,2.039a21.59,21.59,0,0,1-1.617,1.547.906.906,0,0,1-.908-.07,9.4,9.4,0,0,1-.785-.732c-.6-.615-.727-.867-.656-1.254a.974.974,0,0,1,.65-.656.978.978,0,0,1,.979.375l.346.328,1.1-1.1c.844-.844,1.148-1.113,1.3-1.148A.924.924,0,0,1,12.609-14.789Zm9.4,1.348a.887.887,0,0,1,0,1.453c-.164.123-.217.123-3.533.141l-3.369.012-.234-.129a1.012,1.012,0,0,1-.463-.75,1.056,1.056,0,0,1,.451-.75l.223-.129,3.381.018C21.8-13.564,21.85-13.564,22.014-13.441Zm-9.4,4.512a.877.877,0,0,1,.434.58c.082.439.029.5-1.494,2.039A21.59,21.59,0,0,1,9.932-4.764a.906.906,0,0,1-.908-.07,9.4,9.4,0,0,1-.785-.732c-.6-.615-.727-.867-.656-1.254a.974.974,0,0,1,.65-.656.978.978,0,0,1,.979.375l.346.328,1.1-1.1c.844-.844,1.148-1.113,1.3-1.148A.924.924,0,0,1,12.609-8.93Zm9.363,1.318a1,1,0,0,1,.469.732.99.99,0,0,1-.475.785c-.217.111-.357.117-3.545.117-3.3,0-3.316,0-3.545-.129a1.012,1.012,0,0,1-.463-.75,1.056,1.056,0,0,1,.451-.75c.223-.123.24-.129,3.557-.129C21.709-7.734,21.756-7.734,21.973-7.611Z" /></g></g></svg>