<svg xmlns="http://www.w3.org/2000/svg" xmlns:xlink="http://www.w3.org/1999/xlink" width="30" height="30" viewBox="0 0 30 30">
  <defs>
    <clipPath id="clip-path">
      <rect id="Rectangle_58" data-name="Rectangle 58" width="30" height="30" transform="translate(39 35.777)"  stroke="#707070" stroke-width="1"/>
    </clipPath>
  </defs>
  <g id="Mask_Group_130" data-name="Mask Group 130" transform="translate(-39 -35.777)" clip-path="url(#clip-path)">
    <g id="analytics" transform="translate(38.957 65.807)">
      <path id="Path_685" data-name="Path 685" d="M18.229-29.906a.841.841,0,0,0-.34.346c-.117.223-.117.334-.117,5.208v4.974l.663.07a6.771,6.771,0,0,1,4.194,1.971l.422.4v-6.2c0-6.094,0-6.2-.117-6.428a.786.786,0,0,0-.352-.352c-.217-.111-.34-.117-2.182-.117S18.434-30.017,18.229-29.906Z" />
      <path id="Path_686" data-name="Path 686" d="M9.431-26.27a.841.841,0,0,0-.34.346c-.117.229-.117.334-.117,6.569s0,6.34.117,6.569c.176.352.457.469,1.1.469h.522l.07-.663a6.729,6.729,0,0,1,1.1-3.132,9.327,9.327,0,0,1,1.982-2.006l.393-.252v-3.666c0-3.548-.006-3.666-.117-3.889a.786.786,0,0,0-.352-.352c-.217-.111-.34-.117-2.182-.117S9.636-26.381,9.431-26.27Z" />
      <path id="Path_687" data-name="Path 687" d="M.516-22.751a.841.841,0,0,0-.34.346c-.117.223-.117.34-.117,4.809s0,4.586.117,4.809a.786.786,0,0,0,.352.352c.217.111.34.117,2.229.117s2.012-.006,2.229-.117a.786.786,0,0,0,.352-.352c.117-.223.117-.334.117-4.809s0-4.586-.117-4.809a.786.786,0,0,0-.352-.352c-.217-.111-.34-.117-2.24-.117S.721-22.862.516-22.751Z" />
      <path id="Path_688" data-name="Path 688" d="M16.815-17.507a5.341,5.341,0,0,0-3.765,2.874,4.37,4.37,0,0,0-.516,2.317A4.37,4.37,0,0,0,13.05-10a5.425,5.425,0,0,0,3.4,2.792,6.093,6.093,0,0,0,2.6.006A6.923,6.923,0,0,0,20.6-7.865L20.827-8l.61.616.616.61-.117.235a.791.791,0,0,0-.029.757c.053.106,1.3,1.39,2.774,2.862C27.671.059,27.56-.029,28.358-.029a1.565,1.565,0,0,0,1.2-.5,1.451,1.451,0,0,0,.469-1.232,1.632,1.632,0,0,0-.123-.762,28.114,28.114,0,0,0-2.768-2.915C25.683-6.9,24.4-8.135,24.3-8.182a.791.791,0,0,0-.757.029l-.235.117-.61-.616-.616-.61.135-.223a6.923,6.923,0,0,0,.663-1.548,6.093,6.093,0,0,0-.006-2.6,5.407,5.407,0,0,0-3.789-3.783A6.2,6.2,0,0,0,16.815-17.507Z" />
    </g>
  </g>
</svg>
